<svg xmlns="http://www.w3.org/2000/svg" xmlns:xlink="http://www.w3.org/1999/xlink" viewBox="0 0 83.16 77.83"><defs><style>.cls-1{fill:url(#Gradiente_sem_nome_33);}.cls-2{fill:url(#Gradiente_sem_nome_34);}.cls-3{fill:url(#Gradiente_sem_nome_34-2);}.cls-4{fill:url(#Gradiente_sem_nome_34-3);}.cls-5{fill:url(#Gradiente_sem_nome_34-4);}.cls-6{fill:url(#Gradiente_sem_nome_34-5);}.cls-7{fill:url(#Gradiente_sem_nome_34-6);}.cls-8{fill:url(#Gradiente_sem_nome_32);}.cls-9{fill:url(#Gradiente_sem_nome_32-2);}.cls-10{fill:url(#Gradiente_sem_nome_32-3);}.cls-11{fill:url(#Gradiente_sem_nome_32-4);}.cls-12{fill:url(#Gradiente_sem_nome_32-5);}.cls-13{fill:url(#Gradiente_sem_nome_32-6);}.cls-14{fill:url(#Gradiente_sem_nome_33-2);}.cls-15{fill:url(#Gradiente_sem_nome_33-3);}.cls-16{fill:url(#Gradiente_sem_nome_33-4);}.cls-17{fill:url(#Gradiente_sem_nome_33-5);}.cls-18{fill:url(#Gradiente_sem_nome_33-6);}.cls-19{fill:url(#Gradiente_sem_nome_33-7);}.cls-20{fill:url(#Gradiente_sem_nome_33-8);}.cls-21{fill:url(#Gradiente_sem_nome_32-7);}.cls-22{fill:url(#Gradiente_sem_nome_34-7);}.cls-23{fill:url(#Gradiente_sem_nome_33-9);}.cls-24{fill:url(#Gradiente_sem_nome_32-8);}.cls-25{fill:url(#Gradiente_sem_nome_34-8);}.cls-26{fill:url(#Gradiente_sem_nome_33-10);}.cls-27{fill:url(#Gradiente_sem_nome_32-9);}.cls-28{fill:url(#Gradiente_sem_nome_34-9);}.cls-29{fill:url(#Gradiente_sem_nome_33-11);}.cls-30{fill:url(#Gradiente_sem_nome_34-10);}.cls-31{fill:url(#Gradiente_sem_nome_34-11);}.cls-32{fill:url(#Gradiente_sem_nome_32-10);}.cls-33{fill:url(#Gradiente_sem_nome_32-11);}.cls-34{fill:url(#Gradiente_sem_nome_33-12);}.cls-35{fill:url(#Gradiente_sem_nome_34-12);}</style><linearGradient id="Gradiente_sem_nome_33" x1="38.39" y1="56.89" x2="83.68" y2="25.17" gradientUnits="userSpaceOnUse"><stop offset="0" stop-color="#f6a5ba"/><stop offset="0.98" stop-color="#f16a92"/></linearGradient><linearGradient id="Gradiente_sem_nome_34" x1="-164.85" y1="-1795.05" x2="-164.99" y2="-1773.32" gradientTransform="matrix(1, -0.05, 0.05, 1, 264.89, 1819.52)" gradientUnits="userSpaceOnUse"><stop offset="0" stop-color="#aed8f3"/><stop offset="1" stop-color="#076280"/></linearGradient><linearGradient id="Gradiente_sem_nome_34-2" x1="-1033.13" y1="-2174.93" x2="-1033.24" y2="-2158.13" gradientTransform="matrix(0.79, 0.61, -0.61, 0.79, -501.77, 2362.03)" xlink:href="#Gradiente_sem_nome_34"/><linearGradient id="Gradiente_sem_nome_34-3" x1="-756.35" y1="-2103.38" x2="-756.46" y2="-2086.11" gradientTransform="translate(-316.29 2217.01) rotate(28.61)" xlink:href="#Gradiente_sem_nome_34"/><linearGradient id="Gradiente_sem_nome_34-4" x1="-1044" y1="-1831.12" x2="-1044.06" y2="-1821.58" gradientTransform="matrix(0.74, 0.67, -0.67, 0.74, -409.08, 2060.77)" xlink:href="#Gradiente_sem_nome_34"/><linearGradient id="Gradiente_sem_nome_34-5" x1="363.04" y1="-957.33" x2="362.93" y2="-941.04" gradientTransform="translate(290.94 1046.8) rotate(-36.07)" xlink:href="#Gradiente_sem_nome_34"/><linearGradient id="Gradiente_sem_nome_34-6" x1="-70.4" y1="-1487.88" x2="-70.46" y2="-1478.33" gradientTransform="translate(346.87 1523.64) rotate(-9.18)" xlink:href="#Gradiente_sem_nome_34"/><linearGradient id="Gradiente_sem_nome_32" x1="-297.22" y1="-1716.89" x2="-297.27" y2="-1709.32" gradientTransform="translate(319.57 1736.86) rotate(-0.57)" gradientUnits="userSpaceOnUse"><stop offset="0" stop-color="#aba6d2"/><stop offset="0.29" stop-color="#958dc4"/><stop offset="1" stop-color="#7761aa"/></linearGradient><linearGradient id="Gradiente_sem_nome_32-2" x1="-812.86" y1="-1978.79" x2="-812.95" y2="-1966.04" gradientTransform="translate(-115.39 2150.49) rotate(26.05)" xlink:href="#Gradiente_sem_nome_32"/><linearGradient id="Gradiente_sem_nome_32-3" x1="-422.41" y1="-1767.59" x2="-422.45" y2="-1761.07" gradientTransform="translate(222.59 1857.03) rotate(7.48)" xlink:href="#Gradiente_sem_nome_32"/><linearGradient id="Gradiente_sem_nome_32-4" x1="342.31" y1="-1236.73" x2="342.25" y2="-1227.78" gradientTransform="translate(277.56 1303.58) rotate(-27.33)" xlink:href="#Gradiente_sem_nome_32"/><linearGradient id="Gradiente_sem_nome_32-5" x1="230.9" y1="-927.93" x2="230.88" y2="-924.25" gradientTransform="matrix(0.83, -0.55, 0.55, 0.83, 353.87, 968.85)" xlink:href="#Gradiente_sem_nome_32"/><linearGradient id="Gradiente_sem_nome_32-6" x1="-619.47" y1="-1961.29" x2="-619.51" y2="-1955.86" gradientTransform="translate(-231.86 2075.37) rotate(24.78)" xlink:href="#Gradiente_sem_nome_32"/><linearGradient id="Gradiente_sem_nome_33-2" x1="447.23" y1="-866.45" x2="447.18" y2="-859.16" gradientTransform="translate(248.64 1015.11) rotate(-40.54)" xlink:href="#Gradiente_sem_nome_33"/><linearGradient id="Gradiente_sem_nome_33-3" x1="-943.71" y1="-1998.57" x2="-943.75" y2="-1992.78" gradientTransform="matrix(0.67, 0.74, -0.74, 0.67, -809.35, 2047.83)" xlink:href="#Gradiente_sem_nome_33"/><linearGradient id="Gradiente_sem_nome_33-4" x1="-966.63" y1="-1982.93" x2="-966.68" y2="-1975.64" gradientTransform="matrix(0.67, 0.74, -0.74, 0.67, -809.35, 2047.83)" xlink:href="#Gradiente_sem_nome_33"/><linearGradient id="Gradiente_sem_nome_33-5" x1="54.21" y1="-1780.79" x2="54.18" y2="-1776.35" gradientTransform="translate(-160.92 1803.26) rotate(4)" xlink:href="#Gradiente_sem_nome_33"/><linearGradient id="Gradiente_sem_nome_33-6" x1="-809.41" y1="-1939.61" x2="-809.43" y2="-1936.47" gradientTransform="matrix(0.72, 0.69, -0.69, 0.72, -724.3, 1977.75)" xlink:href="#Gradiente_sem_nome_33"/><linearGradient id="Gradiente_sem_nome_33-7" x1="-249.35" y1="-1820.29" x2="-249.4" y2="-1812.41" gradientTransform="matrix(1, 0.09, -0.09, 1, 112.5, 1884.92)" xlink:href="#Gradiente_sem_nome_33"/><linearGradient id="Gradiente_sem_nome_33-8" x1="-229.47" y1="-1794.34" x2="-229.51" y2="-1787.61" gradientTransform="matrix(1, 0.09, -0.09, 1, 112.5, 1884.92)" xlink:href="#Gradiente_sem_nome_33"/><linearGradient id="Gradiente_sem_nome_32-7" x1="-422.57" y1="-1802.56" x2="-422.61" y2="-1796.03" gradientTransform="translate(222.59 1857.03) rotate(7.48)" xlink:href="#Gradiente_sem_nome_32"/><linearGradient id="Gradiente_sem_nome_34-7" x1="-96.3" y1="-1626.03" x2="-96.36" y2="-1616.49" gradientTransform="translate(-245.91 1627.33) rotate(13.34)" xlink:href="#Gradiente_sem_nome_34"/><linearGradient id="Gradiente_sem_nome_33-9" x1="-239.71" y1="-1828.95" x2="-239.75" y2="-1822.23" gradientTransform="matrix(1, 0.09, -0.09, 1, 112.5, 1884.92)" xlink:href="#Gradiente_sem_nome_33"/><linearGradient id="Gradiente_sem_nome_32-8" x1="229.96" y1="-1023.63" x2="229.94" y2="-1019.96" gradientTransform="translate(158.01 1091.26) rotate(-19.89)" xlink:href="#Gradiente_sem_nome_32"/><linearGradient id="Gradiente_sem_nome_34-8" x1="293.69" y1="-193.35" x2="293.6" y2="-180.09" gradientTransform="matrix(0.89, -0.46, -0.46, -0.89, -326.72, 1.72)" xlink:href="#Gradiente_sem_nome_34"/><linearGradient id="Gradiente_sem_nome_33-10" x1="-233.34" y1="-1837.98" x2="-233.39" y2="-1831.25" gradientTransform="matrix(1, 0.09, -0.09, 1, 112.5, 1884.92)" xlink:href="#Gradiente_sem_nome_33"/><linearGradient id="Gradiente_sem_nome_32-9" x1="-412.86" y1="-1780.14" x2="-412.9" y2="-1773.61" gradientTransform="translate(222.59 1857.03) rotate(7.48)" xlink:href="#Gradiente_sem_nome_32"/><linearGradient id="Gradiente_sem_nome_34-9" x1="372.43" y1="-1137.76" x2="372.33" y2="-1121.47" gradientTransform="translate(-293.24 1203.74) rotate(-1.72)" xlink:href="#Gradiente_sem_nome_34"/><linearGradient id="Gradiente_sem_nome_33-11" x1="-762.47" y1="-1911.18" x2="-762.51" y2="-1905.39" gradientTransform="translate(495.83 2024.19) rotate(9.18)" xlink:href="#Gradiente_sem_nome_33"/><linearGradient id="Gradiente_sem_nome_34-10" x1="-892.66" y1="-2092.31" x2="-892.74" y2="-2079.93" gradientTransform="translate(473.11 2281.83) rotate(12.09)" xlink:href="#Gradiente_sem_nome_34"/><linearGradient id="Gradiente_sem_nome_34-11" x1="-59.17" y1="-1513.68" x2="-59.24" y2="-1504.13" gradientTransform="translate(346.87 1523.64) rotate(-9.18)" xlink:href="#Gradiente_sem_nome_34"/><linearGradient id="Gradiente_sem_nome_32-10" x1="242.61" y1="-928.61" x2="242.58" y2="-924.94" gradientTransform="matrix(0.83, -0.55, 0.55, 0.83, 353.87, 968.85)" xlink:href="#Gradiente_sem_nome_32"/><linearGradient id="Gradiente_sem_nome_32-11" x1="232.43" y1="-1014.13" x2="232.4" y2="-1010.46" gradientTransform="translate(158.01 1091.26) rotate(-19.89)" xlink:href="#Gradiente_sem_nome_32"/><linearGradient id="Gradiente_sem_nome_33-12" x1="-655.46" y1="-1869.04" x2="-655.48" y2="-1865.9" gradientTransform="translate(313.47 2012.01) rotate(11.53)" xlink:href="#Gradiente_sem_nome_33"/><linearGradient id="Gradiente_sem_nome_34-12" x1="-86.73" y1="-1636.45" x2="-86.79" y2="-1626.91" gradientTransform="translate(-245.91 1627.33) rotate(13.34)" xlink:href="#Gradiente_sem_nome_34"/></defs><g id="Camada_2" data-name="Camada 2"><g id="Arte"><g id="Camada_2-2" data-name="Camada 2"><g id="Camada_1-2" data-name="Camada 1-2"><path id="cerebo" class="cls-1" d="M83.11,50a6.92,6.92,0,0,0-1.42-5.1,4.45,4.45,0,0,0,.22-3.27,3.23,3.23,0,0,0-.75-1.14l0,0a.86.86,0,0,0,.13-.14v0c.75-.88,1.58-2.59,1.21-5.72a7.68,7.68,0,0,0-3.49-6A4.47,4.47,0,0,0,77,21.48a6,6,0,0,0,.09-5.69c-.57-1-2-2.78-5.33-2.8a5.26,5.26,0,0,0-2.38-5.12A5.06,5.06,0,0,0,66.6,7a4.8,4.8,0,0,0-1.19.16,6.19,6.19,0,0,0-4.49-3.8,7.06,7.06,0,0,0-1.58-.21,5.92,5.92,0,0,0-4.61,2.32,4.37,4.37,0,0,0-3.85,4,5.85,5.85,0,0,0,1.6,5c-2.57,3.76-2.38,7-1.76,9a9.55,9.55,0,0,0,1.65,3.14A5.07,5.07,0,0,0,51,30.93a6.58,6.58,0,0,0,1.33,4,4,4,0,0,0-1.42,3,7.59,7.59,0,0,0,1,3.54,5.47,5.47,0,0,0-.45,7.25c-1,1.8-.37,4.1-.1,4.91a9.6,9.6,0,0,0-1,5.45,8.6,8.6,0,0,0,2.31,4,3.85,3.85,0,0,0-1.73,2.33,6.35,6.35,0,0,0,.56,4.31A7.48,7.48,0,0,0,51,74.48a4.24,4.24,0,0,0,2.33,2.79,5.11,5.11,0,0,0,2.17.5,6.6,6.6,0,0,0,4.15-1.71,6.74,6.74,0,0,0,4.4,1.77,5.53,5.53,0,0,0,1.21-.13A8.69,8.69,0,0,0,70.5,74a4.55,4.55,0,0,0,4-2.25,9.25,9.25,0,0,0,1.4-5.23,3.9,3.9,0,0,0,2.87-2.34,5.4,5.4,0,0,0,.3-3.95,3.65,3.65,0,0,0,2.53-2.51A6.47,6.47,0,0,0,81.23,54,6.16,6.16,0,0,0,83.11,50ZM80,52.85h0l0,0-.06,0h0a7.41,7.41,0,0,1-7.4.91,5.51,5.51,0,0,1-3.35-3.06,7.18,7.18,0,0,1,0-5.24.66.66,0,1,0-1.2-.55h0a8,8,0,0,0-.61,3.12A4.52,4.52,0,0,0,64,47a4,4,0,0,0-3.57,2.65.68.68,0,0,0,.52.79.67.67,0,0,0,.74-.39,2.73,2.73,0,0,1,2.41-1.73c1.92-.16,3.24,1.86,3.25,1.88a.62.62,0,0,0,.18.18,7.53,7.53,0,0,0,.31,1,6.86,6.86,0,0,0,4,3.73,4.56,4.56,0,0,0-2.45,3.18,7.08,7.08,0,0,0-.16,1.45,5.45,5.45,0,0,0-5-.68c-3.07,1.23-3.72,5.08-3,7.39a.67.67,0,0,0,1.27,0,.72.72,0,0,0,0-.41h0c-.45-1.47-.26-4.77,2.23-5.77s4.64,1.24,4.67,1.26a.21.21,0,0,0,.08.06,5.63,5.63,0,0,0,.41,1,4.86,4.86,0,0,0,2.45,2.24.62.62,0,0,0,.23,0,.66.66,0,0,0,.67-.66.67.67,0,0,0-.43-.63c-2.17-.81-2.47-3.51-2.15-5,.55-2.57,3.33-2.75,3.46-2.76a1.05,1.05,0,0,0,.24-.06,9.64,9.64,0,0,0,1.08.06A8.49,8.49,0,0,0,80,54.5a4.92,4.92,0,0,1,.14,2.58c-.35,1.43-2.11,1.68-2.19,1.69a.65.65,0,0,0-.57.73h0a.85.85,0,0,0,0,.17,4,4,0,0,1,.39,2.44c-.58,2.55-2.19,2.72-2.59,2.72h.21s-.71.61-.74,1a.33.33,0,0,0,0,.14A8.4,8.4,0,0,1,73.51,71a3.55,3.55,0,0,1-2.27,1.64,6.71,6.71,0,0,0,.17-4.4.67.67,0,0,0-.86-.43.68.68,0,0,0-.43.86v0c.72,2-.54,4.41-.67,4.66a7.52,7.52,0,0,1-4.36,3.09,5.2,5.2,0,0,1-1,.09,5.47,5.47,0,0,1-3.51-1.42,5.63,5.63,0,0,0,1-5.33.68.68,0,0,0-.86-.43.67.67,0,0,0-.44.85l0,.05c.86,2.36-1.07,4.34-1.15,4.43l0,0h0a5.72,5.72,0,0,1-3.71,1.76,3.82,3.82,0,0,1-1.58-.38,2.92,2.92,0,0,1-1.63-2,6.32,6.32,0,0,1,.45-4,.67.67,0,0,0,0-.72,5.45,5.45,0,0,1-.61-3.65,3,3,0,0,1,1.79-1.93h0c0,.09,2.89-.54,4.1,1.86a2.94,2.94,0,0,1,.09,2.76,3.3,3.3,0,0,1-.85,1,.68.68,0,1,0,.79,1.1,4.3,4.3,0,0,0,1.19-5.52A4.94,4.94,0,0,0,54,62.52a8,8,0,0,1-2.43-3.78,6.79,6.79,0,0,1,.34-3.31,6.51,6.51,0,0,0,2.33,2.09.68.68,0,0,0,.93-.24.67.67,0,0,0-.23-.93h0c-2.25-1.29-2.28-2.7-2.28-2.79s0-.27,0-.27v1s-1.1-2.79.11-4.41a.68.68,0,0,0,0-.85c-.11-.13-2.66-3.21.12-6A6.34,6.34,0,0,0,55,43.4a4.54,4.54,0,0,0,3.86-1.94.69.69,0,0,0-.13-1,1,1,0,0,0-.17-.1.74.74,0,0,0-.51,0,.74.74,0,0,0-.31.27A3.14,3.14,0,0,1,54.84,42a5.66,5.66,0,0,1-1.68-.35,6.54,6.54,0,0,1-.94-3.16,2.94,2.94,0,0,1,1.49-2.42.69.69,0,0,0,.37-.61.65.65,0,0,0-.37-.59s-1.23-.74-1.4-3.63c-.11-2.05.61-3,1-3.32a9.2,9.2,0,0,0,4.39,1.89h0a.69.69,0,0,0,.19-1.35h-.12a8.33,8.33,0,0,1-4-1.88c-.35-.33-4.86-5,.09-11.66A.68.68,0,0,0,53.8,14h0l0,0a4.42,4.42,0,0,1-1.55-4.23,3.08,3.08,0,0,1,2.95-2.89H55.1A4.67,4.67,0,0,1,59.63,9.6a.68.68,0,0,0,.88.37.69.69,0,0,0,.42-.73,1,1,0,0,0,0-.16,5.85,5.85,0,0,0-1.06-1.67,3.19,3.19,0,0,1,2.14.4.61.61,0,0,0,.32.08A.68.68,0,0,0,63,7.22a.69.69,0,0,0-.36-.6,4.12,4.12,0,0,0-4-.2,6.2,6.2,0,0,0-2.15-.83,4.36,4.36,0,0,1,2.84-1.06,5.37,5.37,0,0,1,1.26.16,4.75,4.75,0,0,1,3.74,3.5.68.68,0,0,0,.77.56h0a.58.58,0,0,0,.21-.07,3.07,3.07,0,0,1,1.3-.28,3.74,3.74,0,0,1,2,.65,4,4,0,0,1,1.65,4.51,3.71,3.71,0,0,1-1.26,1.67.67.67,0,1,0,.72,1.14h0a4.92,4.92,0,0,0,1.64-1.95h.33A4.61,4.61,0,0,1,76,16.5c1.4,2.55-.45,5-.52,5.14h0s-2,2.59-4.84,1.68A5.13,5.13,0,0,1,69,22.47c-.15-.14-.31-.28-.48-.41a5.12,5.12,0,0,1-1.58-4.21A.66.66,0,0,0,66.4,17a.68.68,0,0,0-.7.24.74.74,0,0,0-.12.29,5.58,5.58,0,0,0,.48,3.32,4.42,4.42,0,0,0-3.5.62,5.59,5.59,0,0,0-.66.52A4.06,4.06,0,0,1,58,22c-1.86-1.13-1.24-4.12-1.23-4.15a.68.68,0,0,0-.43-.85.64.64,0,0,0-.2,0,.6.6,0,0,0-.32.07.72.72,0,0,0-.36.52c0,.16-.84,4,1.85,5.59a4.8,4.8,0,0,0,2.57.72,4.73,4.73,0,0,0,.75-.05,4.8,4.8,0,0,0-.07,3.28.67.67,0,0,0,.63.43.59.59,0,0,0,.23,0,.67.67,0,0,0,.4-.86h0a3.73,3.73,0,0,1-.15-1.41,3.4,3.4,0,0,1,1.63-2.59,3.69,3.69,0,0,1,4.33.49c.14.13.3.26.45.38l.08.07a6.68,6.68,0,0,0,2,1,5.53,5.53,0,0,0,1.66.26,6.19,6.19,0,0,0,4.42-2.13,3.08,3.08,0,0,1,2.36,2,3.32,3.32,0,0,1-1,3.54c-.34.19-2.68,1.38-4.46-.21a.67.67,0,1,0-.89,1,4.44,4.44,0,0,0,3.06,1.15,5.86,5.86,0,0,0,1-.09,6.78,6.78,0,0,0,1.7-.56c.71.33,2.81,1.6,3.24,5.21.32,2.71-.34,4.06-.87,4.69l0,.06a4.8,4.8,0,0,1-3.78,1.21,4.71,4.71,0,0,1-3.7-1.69.68.68,0,0,0-.94-.13.67.67,0,0,0-.18.87,5.26,5.26,0,0,0,2.39,1.8A4.15,4.15,0,0,0,72,45.14a.67.67,0,0,0,.66.69h-.18a.72.72,0,0,0,.73-.71c.08-2.62,3.06-3.22,3.5-3.29h.05a6.65,6.65,0,0,0,3.13-.71,1.87,1.87,0,0,1,.62.82,3.4,3.4,0,0,1-.35,2.59.67.67,0,0,0,.12.75,5.37,5.37,0,0,1,1.33,4.28c-.31,2.52-1.59,3.27-1.64,3.3Zm-19.46-2a.68.68,0,0,1,.36.88h0a3.9,3.9,0,0,1-3.51,2.34A4.67,4.67,0,0,1,56,53.88a.68.68,0,0,1,.37-1.3h0l0,0a2.56,2.56,0,0,0,3.3-1.36.67.67,0,0,1,.88-.35h0ZM56.65,15.42a.68.68,0,0,1,.49-.82c2.5-.6,2.12-2.48,2.11-2.55a.67.67,0,1,1,1.3-.32h0v0s.67,3.24-3.09,4.15a.67.67,0,0,1-.81-.49Zm10.89,19a7,7,0,0,1,2.47,3,.67.67,0,0,1-1.24.49,4.57,4.57,0,0,0-2.3-2.54l-.13-.06a5.53,5.53,0,0,0-1.68-.55,4.43,4.43,0,0,0-3.53,1l-.37.34h0a4.9,4.9,0,0,0-1.43,3.17.67.67,0,0,1-.67.64h0a.67.67,0,0,1-.64-.7h0a6.28,6.28,0,0,1,.93-2.94,3.93,3.93,0,0,1-3.41-3.32.66.66,0,0,1,.48-.82.68.68,0,0,1,.82.49v0A2.77,2.77,0,0,0,60,34.9l.12-.11a5.59,5.59,0,0,1,3.24-1.47,6.64,6.64,0,0,1,3,.46c.55-1.05,1.84-2.91,4-2.38a5.08,5.08,0,0,1,3.46,3.34.67.67,0,0,1-1.29.38A3.72,3.72,0,0,0,70,32.7c-1.23-.3-2.08,1-2.45,1.71Z"/><g id="Brabuleta"><path class="cls-2" d="M16.11,32.46c-.94-.48-2.56,1.35-3.53,2.34a13,13,0,0,0-1.81,2.71,5,5,0,0,0-.11-.56c.11,0,.15-.13.19-.23s.13-.32.19-.48a5.11,5.11,0,0,0,.26-1,.08.08,0,0,0,0-.11.09.09,0,0,0-.11,0v0h0c-.08.3-.13.6-.21.9l-.12.44a1.29,1.29,0,0,1-.16.41c-.05-.16-.09-.25-.14-.25s-.08.11-.11.29h0a1.25,1.25,0,0,1-.22-.41L10,36.11c-.1-.29-.19-.58-.31-.87a.08.08,0,0,0-.1-.06.1.1,0,0,0-.06.11h0a5,5,0,0,0,.38,1c.07.16.16.31.24.46s.1.19.21.21h0a4.48,4.48,0,0,0-.05.64,13.38,13.38,0,0,0-2.12-2.56c-1.07-.88-2.87-2.53-3.76-1.94s.39,1.93.46,2.23S5,37,5.44,37.49s2.13.44,2.13.44-2.53,1-1.78,2.48,1.73,2,2.72,1.76,1.67-2,1.92-2.6c.08.83.21,1.41.32,1.41s.17-.57.17-1.37c.34.59,1.31,2.18,2.14,2.31,1,.16,1.93-.47,2.52-2s-2-2.27-2-2.27,1.73-.16,2.08-.67a5.89,5.89,0,0,0,.28-2.2C15.94,34.44,17,32.94,16.11,32.46Z"/><path class="cls-3" d="M12.54,16.09c-.3-.75-2.18-.51-3.24-.42a10.12,10.12,0,0,0-2.43.67A2.46,2.46,0,0,0,7.09,16a.27.27,0,0,0,.23,0l.35-.19a4.24,4.24,0,0,0,.69-.48.07.07,0,0,0,0-.09.06.06,0,0,0-.08,0l0,0-.58.42-.29.19a1.08,1.08,0,0,1-.3.16c.06-.12.07-.2,0-.22s-.1,0-.21.11h0A1,1,0,0,1,7,15.47c0-.11.07-.22.11-.32s.19-.44.26-.67a.06.06,0,0,0,0-.08.07.07,0,0,0-.09,0h0a4,4,0,0,0-.29.78c0,.12-.07.25-.1.38a.26.26,0,0,0,0,.23h0c-.12.11-.24.22-.35.34a9.56,9.56,0,0,0,0-2.55c-.18-1.06-.4-2.94-1.21-3s-.75,1.33-.86,1.53-.79,1-.79,1.51S4.8,15,4.8,15s-2-.71-2.3.54,0,2.07.7,2.41,2-.35,2.43-.55c-.37.52-.59.93-.52,1s.39-.25.8-.71c-.1.51-.34,1.93.08,2.43s1.36.69,2.5.07,0-2.36,0-2.36,1.09.78,1.55.66,1.1-1,1.27-1.13S12.85,16.84,12.54,16.09Z"/><path class="cls-4" d="M32,4.84c-.44-.72-2.3-.16-3.37.11A10.34,10.34,0,0,0,26.3,6c.06-.14.11-.29.16-.43a.29.29,0,0,0,.22-.07A3.92,3.92,0,0,0,27,5.28a3.58,3.58,0,0,0,.62-.61c.05-.07,0-.15-.09-.09s-.35.35-.53.52l-.26.24a.92.92,0,0,1-.26.22c0-.13,0-.21,0-.22s-.1,0-.19.14h0a.77.77,0,0,1,0-.37l.06-.35c0-.24.11-.48.16-.72A.07.07,0,0,0,26.49,4a.06.06,0,0,0-.08,0,3.47,3.47,0,0,0-.17.85c0,.13,0,.27,0,.41a.28.28,0,0,0,.06.22h0a4.5,4.5,0,0,0-.3.42,10.29,10.29,0,0,0-.37-2.61c-.35-1-.89-2.93-1.73-2.9s-.54,1.47-.62,1.7-.64,1.18-.55,1.67S24,5,24,5s-2.12-.4-2.24.93.32,2.1,1.1,2.33,2-.68,2.38-1c-.29.59-.44,1-.36,1.09s.35-.32.68-.86c0,.54,0,2,.49,2.47s1.5.47,2.55-.34-.43-2.39-.43-2.39,1.24.61,1.69.41,1-1.18,1.09-1.37S32.45,5.56,32,4.84Z"/><path class="cls-5" d="M48.12,6.88c-.14-.44-1.21-.39-1.82-.38a6,6,0,0,0-1.39.26c.05-.06.09-.13.14-.2a.2.2,0,0,0,.13,0l.21-.09a2.5,2.5,0,0,0,.41-.25s0,0,0,0a0,0,0,0,0-.05,0h0l-.35.21-.18.1-.18.08q.06-.11,0-.12s0,0-.12,0h0a.66.66,0,0,1,.06-.2l.08-.18c.06-.12.13-.24.18-.36a0,0,0,0,0,0-.05h0s0,0,0,0h0a1.72,1.72,0,0,0-.21.43,1.72,1.72,0,0,0-.07.21.15.15,0,0,0,0,.13m0,0-.21.18a5.86,5.86,0,0,0,.15-1.45c0-.61-.1-1.68-.55-1.78s-.49.72-.56.83a2.82,2.82,0,0,0-.51.82c0,.27.52.81.52.81s-1.09-.48-1.33.2-.11,1.17.29,1.4,1.15-.11,1.4-.2c-.23.28-.38.5-.34.53s.23-.12.49-.36c-.08.28-.28,1.08-.07,1.38s.74.46,1.42.16.08-1.34.08-1.34.58.49.85.45.66-.51.76-.59.91-.19.78-.63Z"/><path class="cls-6" d="M23.68,54.58c-.78.08-1.05,1.89-1.26,2.92a10,10,0,0,0,0,2.44c-.1-.12-.2-.22-.3-.32a.29.29,0,0,0,0-.22c0-.13-.05-.26-.08-.38a3.52,3.52,0,0,0-.27-.77.06.06,0,0,0-.06-.06.06.06,0,0,0-.06.07v0h0c.07.22.16.44.23.65s.07.21.1.32a.89.89,0,0,1,.08.32c-.1-.08-.16-.12-.19-.1s0,.1,0,.22h0a.87.87,0,0,1-.3-.16l-.27-.2c-.19-.14-.37-.29-.56-.42a.06.06,0,0,0-.08,0h0a.06.06,0,0,0,0,.08,3.9,3.9,0,0,0,.65.48l.33.19a.25.25,0,0,0,.22,0s0,0,0,0c.07.15.15.29.23.43a9.38,9.38,0,0,0-2.37-.74c-1-.12-2.84-.42-3.16.31s1,1,1.19,1.21.75,1,1.2,1.13,1.52-.59,1.52-.59-1.19,1.65-.1,2.29,1.91.58,2.43,0,.21-2,.14-2.41c.39.48.71.79.78.75s-.12-.44-.45-.93c.45.22,1.71.83,2.29.58s1-1.09.75-2.32-2.21-.6-2.21-.6,1-.81,1-1.27-.62-1.28-.72-1.49S24.47,54.5,23.68,54.58Z"/><path class="cls-7" d="M41.7,61.85c-.43-.16-1.06.71-1.44,1.18a5.89,5.89,0,0,0-.66,1.27,1.83,1.83,0,0,0-.08-.25s.06-.06.08-.1l.06-.22a2,2,0,0,0,.06-.48,0,0,0,0,0,0,0h0a.05.05,0,0,0-.05,0h0c0,.13,0,.27,0,.4l0,.2a1.33,1.33,0,0,1,0,.19c0-.07-.05-.11-.07-.1s0,0,0,.12h0a.33.33,0,0,1-.11-.15l-.1-.18c-.06-.12-.11-.25-.17-.37a0,0,0,0,0-.05,0s0,0,0,0h0a2,2,0,0,0,.2.42,1.27,1.27,0,0,0,.13.19s.05.08.1.08h0a2.53,2.53,0,0,0,0,.28,5.53,5.53,0,0,0-1-1c-.51-.34-1.37-1-1.73-.68s.26.82.3,1a2.36,2.36,0,0,0,.32.92c.2.19,1,.1,1,.1s-1.07.54-.67,1.16.85.81,1.28.65.64-1,.71-1.22c.08.35.16.6.21.59s0-.25,0-.6c.18.24.67.89,1,.91s.82-.29,1-1-1-.9-1-.9.74-.15.88-.38a2.49,2.49,0,0,0,0-1C41.71,62.71,42.13,62,41.7,61.85Z"/><path class="cls-8" d="M10.23,22.66c-.59-.58-1.62,0-2.58.75a15.71,15.71,0,0,0-2.14,2.22,2,2,0,0,0-.16-.73,1.72,1.72,0,0,1,.55-1.18,2.33,2.33,0,0,1,1.38-.52.11.11,0,0,0,.09-.12A.11.11,0,0,0,7.28,23a2.13,2.13,0,0,0-1.54.62,1.59,1.59,0,0,0-.45,1.21H5.21a1.59,1.59,0,0,0-.47-1.2A2.15,2.15,0,0,0,3.16,23a.1.1,0,0,0-.09.12h0a.11.11,0,0,0,.09.09,2.37,2.37,0,0,1,1.4.5,1.75,1.75,0,0,1,.57,1.17,2.29,2.29,0,0,0-.16.81,16.14,16.14,0,0,0-2.23-2.27c-1-.7-2-1.29-2.6-.71s.8,1.19.92,1.81.08,1.62.6,2a1.73,1.73,0,0,0,1.34,0,1.7,1.7,0,0,0-.67,1c0,.55.65,1,.65,1.42,0,.1-.43,1.26,0,1.37s.34-1.19.59-1.43.89-.29,1.07-.81,0-.82,0-1.09a1.65,1.65,0,0,1,.28-.5c0,.67.16,1.17.31,1.17s.26-.47.29-1.1a1.64,1.64,0,0,1,.24.43c.09.26-.14.57,0,1.08s.83.57,1.09.8.2,1.54.61,1.42,0-1.27,0-1.38c0-.43.67-.87.62-1.42a1.74,1.74,0,0,0-.68-1,1.7,1.7,0,0,0,1.34-.06c.52-.36.46-1.37.57-2S10.81,23.23,10.23,22.66Z"/><path class="cls-9" d="M31.43,15.45C31,14.15,29,14.28,27,14.66a25.88,25.88,0,0,0-4.89,1.75,4,4,0,0,0,.29-1.23,2.85,2.85,0,0,1,1.72-1.37,3.92,3.92,0,0,1,2.48.25.19.19,0,0,0,.23-.1.17.17,0,0,0-.07-.21,3.58,3.58,0,0,0-2.83-.23A2.71,2.71,0,0,0,22.33,15a.12.12,0,0,0,0-.05h-.07a2.67,2.67,0,0,0,.19-2.16,3.6,3.6,0,0,0-1.92-2.08.18.18,0,0,0-.24.08.18.18,0,0,0,.08.24,4,4,0,0,1,1.74,1.8A2.94,2.94,0,0,1,22,15a4,4,0,0,0-.86,1.09A25.07,25.07,0,0,0,19.51,11c-.92-1.79-2.06-3.46-3.37-3s.32,2.39,0,3.4-1.1,2.52-.58,3.44a3,3,0,0,0,2,1.07A2.93,2.93,0,0,0,15.81,17c-.46.8.26,2-.08,2.62-.08.15-1.6,1.57-1.06,2s1.41-1.55,2-1.71,1.56.22,2.24-.43.54-1.27.87-1.62a2.7,2.7,0,0,1,.81-.53c-.45,1-.63,1.88-.4,2s.74-.51,1.26-1.44a2.74,2.74,0,0,1,0,.81c-.06.46-.64.76-.73,1.68s.82,1.48,1,2-.84,2.47-.13,2.59.89-1.94,1-2.1c.31-.68,1.67-.83,2-1.69a2.87,2.87,0,0,0-.27-2,2.89,2.89,0,0,0,2.08.91c1-.15,1.71-1.71,2.33-2.56S31.89,16.76,31.43,15.45Z"/><path class="cls-10" d="M38.5,52.82c-.43-.56-1.39-.17-2.29.34a12.3,12.3,0,0,0-2.1,1.64,1.78,1.78,0,0,0-.06-.65,1.48,1.48,0,0,1,.62-.94,2,2,0,0,1,1.25-.28.08.08,0,0,0,.09-.08.09.09,0,0,0-.07-.1,1.82,1.82,0,0,0-1.41.35,1.34,1.34,0,0,0-.53,1l0,0h0A1.39,1.39,0,0,0,33.68,53a1.81,1.81,0,0,0-1.28-.69.08.08,0,0,0-.1.07h0a.1.1,0,0,0,.08.1,2,2,0,0,1,1.13.6,1.48,1.48,0,0,1,.35,1.07,1.94,1.94,0,0,0-.24.66A13.44,13.44,0,0,0,32,52.58c-.74-.71-1.56-1.34-2.13-.91s.54,1.11.57,1.65-.13,1.4.27,1.75a1.49,1.49,0,0,0,1.14.2,1.48,1.48,0,0,0-.7.8c-.09.48.44.91.38,1.29,0,.09-.52,1-.18,1.17s.44-1,.68-1.15.8-.14,1-.57.06-.71.16-.92a1.35,1.35,0,0,1,.31-.4c0,.58,0,1,.13,1s.27-.37.37-.91a1.19,1.19,0,0,1,.16.39c.05.24-.18.48-.08.94s.64.59.83.81,0,1.34.35,1.29.12-1.09.13-1.18c0-.38.68-.67.71-1.14a1.55,1.55,0,0,0-.46-.95,1.51,1.51,0,0,0,1.15.1c.48-.24.56-1.11.72-1.62S38.93,53.39,38.5,52.82Z"/><path class="cls-11" d="M18.61,42.65c-.92-.3-1.7.9-2.32,2.17a18.09,18.09,0,0,0-1.08,3.49,2.49,2.49,0,0,0-.57-.68,2.08,2.08,0,0,1-.05-1.55,2.78,2.78,0,0,1,1.2-1.29.13.13,0,0,0,.05-.17.12.12,0,0,0-.16,0h0a2.51,2.51,0,0,0-1.33,1.49,1.9,1.9,0,0,0,.16,1.51h0s0,0,0,0a1.86,1.86,0,0,0-1.14-1,2.51,2.51,0,0,0-2,.2.12.12,0,1,0,.11.21,2.74,2.74,0,0,1,1.74-.21,2,2,0,0,1,1.23.93,2.84,2.84,0,0,0,.25,1,18.08,18.08,0,0,0-3.56-1.21c-1.4-.23-2.82-.29-3.12.63s1.48.83,1.93,1.42,1,1.69,1.69,1.78A2.06,2.06,0,0,0,13,50.63a2,2,0,0,0-.16,1.44c.25.59,1.21.68,1.43,1.15.06.11.22,1.56.71,1.46s-.27-1.44-.13-1.83.78-.78.7-1.43-.48-.85-.54-1.18a1.75,1.75,0,0,1,0-.68c.39.69.8,1.16,1,1.08s0-.64-.29-1.32a1.75,1.75,0,0,1,.48.32c.24.23.16.67.64,1.11s1.18.16,1.57.27,1,1.52,1.41,1.17-.72-1.32-.78-1.43c-.25-.46.24-1.28-.1-1.84a2,2,0,0,0-1.26-.71,2,2,0,0,0,1.38-.79c.36-.65-.24-1.68-.45-2.39S19.54,43,18.61,42.65Z"/><path class="cls-12" d="M37.42,70.65c-.4-.08-.65.44-.86,1a7.44,7.44,0,0,0-.28,1.48.88.88,0,0,0-.26-.25.81.81,0,0,1-.09-.64,1,1,0,0,1,.43-.58,0,0,0,0,0,0-.07h0a.06.06,0,0,0-.07,0h0a1.06,1.06,0,0,0-.48.67.78.78,0,0,0,.14.61h0v0a.8.8,0,0,0-.51-.37,1,1,0,0,0-.8.18s0,.11.06.08a1.07,1.07,0,0,1,.7-.16.81.81,0,0,1,.54.32,1.28,1.28,0,0,0,.14.37,7.75,7.75,0,0,0-1.5-.34c-.58,0-1.17,0-1.24.4s.63.27.85.49.46.65.76.65a.84.84,0,0,0,.56-.34.85.85,0,0,0,0,.59c.13.24.53.23.64.41s.16.63.35.56-.17-.57-.13-.73.28-.36.22-.62-.24-.32-.28-.45a.88.88,0,0,1,0-.28c.19.26.37.43.44.39s0-.26-.18-.52a.53.53,0,0,1,.21.11c.11.08.1.27.31.42s.49,0,.65,0,.48.58.63.42S38,74,38,73.92s0-.53-.12-.74a.87.87,0,0,0-.54-.24.85.85,0,0,0,.53-.38c.11-.28-.18-.68-.3-1S37.8,70.73,37.42,70.65Z"/><path class="cls-13" d="M31.13,32.62c-.21-.55-1.07-.48-1.91-.3a10.69,10.69,0,0,0-2.07.8,1.62,1.62,0,0,0,.11-.53A1.26,1.26,0,0,1,28,32a1.61,1.61,0,0,1,1.06.09.08.08,0,0,0,.1,0,.07.07,0,0,0,0-.1h0a1.56,1.56,0,0,0-1.2-.07,1.14,1.14,0,0,0-.66.65,0,0,0,0,0,0,0h0a1.14,1.14,0,0,0,.06-.92,1.5,1.5,0,0,0-.84-.87.07.07,0,0,0-.1,0,.07.07,0,0,0,0,.09h0a1.63,1.63,0,0,1,.76.75,1.22,1.22,0,0,1,0,.94,1.64,1.64,0,0,0-.36.47A11.1,11.1,0,0,0,26,30.85c-.41-.75-.91-1.45-1.45-1.25s.16,1,0,1.46-.45,1.08-.21,1.46a1.25,1.25,0,0,0,.85.44,1.27,1.27,0,0,0-.74.46c-.19.35.12.84,0,1.12,0,.07-.67.69-.44.89s.59-.67.82-.75.67.08.95-.2.22-.55.36-.7a1,1,0,0,1,.34-.24c-.18.45-.26.81-.16.86s.32-.23.52-.63a1,1,0,0,1,0,.35c0,.2-.27.32-.3.72s.37.62.46.85-.33,1.06,0,1.11.36-.83.39-.9c.13-.29.7-.37.84-.74a1.26,1.26,0,0,0-.13-.87,1.24,1.24,0,0,0,.89.37c.44-.08.71-.74,1-1.12S31.32,33.17,31.13,32.62Z"/><path class="cls-14" d="M29.11,62.44c-.86,0-1.51,2.06-1.54,2.9a27.73,27.73,0,0,0,.26,3,3.42,3.42,0,0,0-.79-.63,2.92,2.92,0,0,1-.53-1.16,1.15,1.15,0,0,1,0-.61c.07-.21.32-.41.55-.26a.34.34,0,0,1,0,.48l0,0a.07.07,0,0,0,.07.11h0c.55-.39-.13-1.17-.61-.69a1,1,0,0,0-.14,1,3,3,0,0,0,.48,1.07,3,3,0,0,0-1-.62.94.94,0,0,0-1,0,.46.46,0,1,0,.6.7.06.06,0,0,0,0-.09.06.06,0,0,0-.09,0h0a.34.34,0,0,1-.48,0l0-.06c-.12-.23.12-.46.33-.5a1.24,1.24,0,0,1,.6.11,3,3,0,0,1,1.08.7,3.11,3.11,0,0,0,.51.88A27.22,27.22,0,0,0,24.45,68c-.84-.09-3,.25-3.1,1.09s1.19.54,1.5.91.6,1.23,1.58,1.44a2.29,2.29,0,0,0,1.84-.69A2.26,2.26,0,0,0,26,72c.09.5.77.47.77.47a1,1,0,0,0,.73.58c.56.13.91-.49.91-.49a.63.63,0,0,0,.86-.26c.29-.39-.3-1.52-.67-2.19.4.39.73.61.82.53s-.07-.42-.38-.86c.61.46,1.62,1.19,2,1a.64.64,0,0,0,.38-.82s.67-.25.62-.83a1,1,0,0,0-.47-.81s.13-.67-.35-.83a2.25,2.25,0,0,0-1.22.13,2.3,2.3,0,0,0,1-1.72c-.06-1-.86-1.42-1.19-1.78S30,62.46,29.11,62.44Z"/><path class="cls-15" d="M40.27,13.26c0-.68-1.67-1.16-2.34-1.16s-2,.21-2.39.27a2.29,2.29,0,0,0,.48-.64,2.26,2.26,0,0,1,.92-.45.84.84,0,0,1,.47,0c.16,0,.34.25.22.42a.26.26,0,0,1-.38,0h0a.08.08,0,0,1,0,0,.06.06,0,1,0-.08.08c.32.43.93-.13.54-.5a.76.76,0,0,0-.76-.09,2.6,2.6,0,0,0-.84.4,2.62,2.62,0,0,0,.48-.8.78.78,0,0,0,0-.77c-.32-.42-1,.13-.55.48a.06.06,0,0,0,.08,0,0,0,0,0,0,0-.07.28.28,0,0,1,0-.38l0,0c.18-.1.36.08.4.25a1,1,0,0,1-.07.49,2.68,2.68,0,0,1-.53.87,2.37,2.37,0,0,0-.7.42,20.93,20.93,0,0,0,.5-2.36c.06-.67-.25-2.38-.93-2.44s-.4,1-.69,1.21-1,.5-1.1,1.29a1.79,1.79,0,0,0,.59,1.45,1.81,1.81,0,0,0-1-.22c-.4.09-.36.62-.36.62a.83.83,0,0,0-.44.6c-.09.45.41.71.41.71a.51.51,0,0,0,.22.68c.32.22,1.21-.27,1.73-.59-.3.32-.47.6-.4.67s.31-.06.68-.32c-.37.48-.92,1.31-.74,1.64a.49.49,0,0,0,.66.28s.22.53.67.49a.8.8,0,0,0,.64-.39s.53.09.65-.29a1.86,1.86,0,0,0-.13-1,1.85,1.85,0,0,0,1.39.72c.8-.07,1.11-.72,1.39-1S40.27,14,40.27,13.26Z"/><path class="cls-16" d="M14,7.59c0-.85-2.1-1.46-2.94-1.46a28.28,28.28,0,0,0-3,.35,3.16,3.16,0,0,0,.6-.81,2.94,2.94,0,0,1,1.15-.56,1.26,1.26,0,0,1,.61,0c.21.06.42.32.27.54a.33.33,0,0,1-.47,0l-.05,0a.07.07,0,0,0-.1,0,.08.08,0,0,0,0,.09h0c.41.55,1.17-.16.68-.63a1,1,0,0,0-1-.11,3.08,3.08,0,0,0-1,.5,3.34,3.34,0,0,0,.59-1,1,1,0,0,0,0-1c-.42-.53-1.2.16-.69.61a.06.06,0,0,0,.09,0h0a.06.06,0,0,0,0-.09h0a.34.34,0,0,1,0-.48h0l.06,0c.23-.12.46.11.51.32a1.26,1.26,0,0,1-.09.61,3,3,0,0,1-.67,1.09,3,3,0,0,0-.87.54,28.43,28.43,0,0,0,.64-3C8.36,2.24,8,.09,7.11,0s-.5,1.21-.87,1.53S5,2.16,4.86,3.14A2.35,2.35,0,0,0,5.6,5,2.21,2.21,0,0,0,4.4,4.7c-.5.11-.45.78-.45.78a1.05,1.05,0,0,0-.56.75c-.12.56.52.89.52.89A.64.64,0,0,0,4.19,8c.39.27,1.51-.34,2.16-.74-.37.42-.58.75-.5.84s.42-.08.86-.4c-.46.62-1.15,1.65-.92,2.07a.64.64,0,0,0,.83.36s.26.65.84.59a1,1,0,0,0,.79-.48s.68.12.83-.36a2.23,2.23,0,0,0-.16-1.22,2.3,2.3,0,0,0,1.75.91c1-.08,1.39-.9,1.74-1.23S14,8.45,14,7.59Z"/><path class="cls-17" d="M21,27.09c-.36-.37-1.55.24-1.92.59a17.76,17.76,0,0,0-1.18,1.42,2.15,2.15,0,0,0-.07-.62,1.75,1.75,0,0,1,.27-.73.75.75,0,0,1,.26-.27c.11-.06.32,0,.34.12a.21.21,0,0,1-.18.23H18.5s0,0,0,.05a0,0,0,0,0,0,0,.28.28,0,1,0,0-.56c-.22,0-.37.19-.48.36a1.72,1.72,0,0,0-.26.66,1.88,1.88,0,0,0-.16-.7c-.08-.18-.2-.38-.41-.42a.29.29,0,1,0-.05.57s0,0,0-.05,0,0,0,0a.19.19,0,0,1-.2-.21,0,0,0,0,1,0,0c.05-.16.25-.15.36-.07a.71.71,0,0,1,.21.3,1.83,1.83,0,0,1,.16.77,1.78,1.78,0,0,0-.16.6,17.16,17.16,0,0,0-1-1.58c-.32-.4-1.4-1.19-1.81-.87s.28.75.26,1a1.61,1.61,0,0,0,.06,1.3,1.42,1.42,0,0,0,1.1.5,1.37,1.37,0,0,0-.65.38c-.17.25.13.53.13.53a.64.64,0,0,0,.06.57c.19.3.61.18.61.18a.39.39,0,0,0,.48.26h0c.29-.05.52-.79.64-1.24,0,.35.06.58.13.58s.15-.21.21-.53c.06.46.19,1.21.46,1.29a.39.39,0,0,0,.52-.19h0s.4.18.62-.08a.63.63,0,0,0,.15-.56s.35-.23.21-.5a1.35,1.35,0,0,0-.58-.47,1.39,1.39,0,0,0,1.15-.34,1.64,1.64,0,0,0,.26-1.27C20.6,27.78,21.4,27.47,21,27.09Z"/><path class="cls-18" d="M32.75,24.37c0-.36-.95-.56-1.31-.54s-.86.14-1.28.24a1.47,1.47,0,0,0,.24-.37,1.27,1.27,0,0,1,.48-.27.39.39,0,0,1,.26,0c.09,0,.19.12.13.22a.14.14,0,0,1-.2,0h0a0,0,0,0,0,0,0,0,0,0,0,0,0,0h0a.2.2,0,1,0,.28-.29.42.42,0,0,0-.42,0,1.45,1.45,0,0,0-.44.24,1.42,1.42,0,0,0,.23-.44.42.42,0,0,0,0-.42c-.19-.21-.51.1-.28.29a0,0,0,0,0,.05-.05.13.13,0,0,1,0-.2l0,0c.09-.05.2,0,.22.13a.46.46,0,0,1,0,.26,1.27,1.27,0,0,1-.25.49,1.29,1.29,0,0,0-.36.25q.12-.64.18-1.29c0-.37-.22-1.28-.59-1.29s-.18.53-.32.68-.5.31-.55.74a1,1,0,0,0,.37.76.92.92,0,0,0-.52-.08c-.21.05-.16.35-.16.35a.43.43,0,0,0-.22.33c0,.25.25.37.25.37a.27.27,0,0,0,.14.36h0c.18.11.65-.19.91-.38-.15.19-.23.34-.19.37s.18,0,.35-.19c-.17.28-.44.74-.33.91a.26.26,0,0,0,.36.13h0s.14.28.38.24a.42.42,0,0,0,.32-.24s.29,0,.34-.18a.94.94,0,0,0-.1-.52,1,1,0,0,0,.78.34c.42-.06.57-.42.71-.58S32.77,24.74,32.75,24.37Z"/><path class="cls-19" d="M32.54,42.37c-.63-.68-2.74.39-3.42,1A30.41,30.41,0,0,0,27,45.85a3.32,3.32,0,0,0-.12-1.09,3.36,3.36,0,0,1,.51-1.29,1.32,1.32,0,0,1,.46-.48c.21-.1.57-.06.61.23a.36.36,0,0,1-.34.39H28a.08.08,0,0,0-.08.08.09.09,0,0,0,.06.07.5.5,0,1,0,.08-1,1.11,1.11,0,0,0-.85.62,3.31,3.31,0,0,0-.47,1.17,3.48,3.48,0,0,0-.26-1.24c-.14-.32-.34-.69-.73-.75a.5.5,0,1,0-.09,1,.08.08,0,0,0,.07-.08.07.07,0,0,0-.06-.07.37.37,0,0,1-.35-.39.17.17,0,0,1,0-.07c.09-.27.45-.26.64-.12a1.22,1.22,0,0,1,.37.55,3.29,3.29,0,0,1,.27,1.35,3.4,3.4,0,0,0-.31,1.07A29.78,29.78,0,0,0,24.67,43c-.56-.73-2.46-2.15-3.19-1.59s.48,1.33.43,1.85a2.89,2.89,0,0,0,.08,2.3,2.53,2.53,0,0,0,1.93.92,2.38,2.38,0,0,0-1.15.66c-.32.44.22,1,.22,1a1.08,1.08,0,0,0,.1,1c.31.54,1.06.32,1.06.32a.7.7,0,0,0,.86.49c.51-.08.95-1.39,1.18-2.18,0,.61.09,1,.22,1s.27-.36.38-.94c.09.82.29,2.15.78,2.31a.7.7,0,0,0,.93-.32,1,1,0,0,0,1.11-.13,1.14,1.14,0,0,0,.27-1s.62-.4.39-.89a2.4,2.4,0,0,0-1-.85,2.52,2.52,0,0,0,2.06-.56,2.92,2.92,0,0,0,.49-2.26C31.83,43.59,33.15,43.05,32.54,42.37Z"/><path class="cls-20" d="M49.27,69.92c-.54-.58-2.34.32-2.92.85a27.55,27.55,0,0,0-1.82,2.11,2.89,2.89,0,0,0-.1-.93,2.85,2.85,0,0,1,.43-1.1,1.1,1.1,0,0,1,.39-.41c.18-.08.48,0,.52.2a.31.31,0,0,1-.3.33,0,0,0,0,1,0,0,.07.07,0,0,0-.07.06h0s0,.07.06.07h0a.43.43,0,1,0,.07-.85.94.94,0,0,0-.72.52,2.9,2.9,0,0,0-.41,1,2.89,2.89,0,0,0-.21-1c-.12-.28-.3-.59-.62-.65a.43.43,0,1,0-.09.85s.07,0,.07-.06,0-.06-.06-.07a.32.32,0,0,1-.3-.33.13.13,0,0,0,0-.06c.08-.23.39-.21.55-.1a1.07,1.07,0,0,1,.32.47,2.75,2.75,0,0,1,.23,1.17,2.81,2.81,0,0,0-.26.91,23.91,23.91,0,0,0-1.43-2.41c-.48-.62-2.09-1.83-2.71-1.35s.41,1.13.37,1.57a2.47,2.47,0,0,0,.07,2,2.09,2.09,0,0,0,1.64.77A2.13,2.13,0,0,0,41,74c-.28.38.18.81.18.81a.93.93,0,0,0,.09.86c.27.46.91.29.91.29a.59.59,0,0,0,.72.41c.45-.07.81-1.19,1-1.86,0,.52.07.87.18.88s.23-.32.32-.81c.08.7.25,1.84.66,2a.59.59,0,0,0,.79-.28s.6.28,1-.12a.93.93,0,0,0,.23-.83s.53-.34.32-.76a2.1,2.1,0,0,0-.87-.72,2.15,2.15,0,0,0,1.75-.48,2.52,2.52,0,0,0,.42-1.93C48.65,71,49.8,70.5,49.27,69.92Z"/><path class="cls-21" d="M42.88,18.19c-.43-.56-1.39-.17-2.29.33a12.55,12.55,0,0,0-2.09,1.65,1.78,1.78,0,0,0-.06-.65,1.44,1.44,0,0,1,.62-.95,2,2,0,0,1,1.24-.27.1.1,0,0,0,.1-.09.1.1,0,0,0-.07-.09,1.86,1.86,0,0,0-1.41.34,1.36,1.36,0,0,0-.53,1l0,0h0a1.39,1.39,0,0,0-.25-1.08,1.88,1.88,0,0,0-1.28-.7.09.09,0,0,0-.1.07.09.09,0,0,0,.07.11h0a2,2,0,0,1,1.13.59,1.49,1.49,0,0,1,.35,1.07,2.07,2.07,0,0,0-.24.67A13,13,0,0,0,36.38,18c-.74-.72-1.57-1.35-2.13-.92s.54,1.12.57,1.66-.13,1.39.27,1.75a1.47,1.47,0,0,0,1.13.2s-.6.32-.69.8.44.91.38,1.28c0,.09-.52,1-.18,1.18s.44-1,.68-1.15.8-.15,1-.57.06-.71.16-.93a1.3,1.3,0,0,1,.31-.39c-.06.57,0,1,.12,1s.28-.37.38-.91a1.34,1.34,0,0,1,.16.39c0,.24-.19.48-.08.94s.64.58.82.81,0,1.34.36,1.27.12-1.08.13-1.17c0-.38.68-.67.71-1.14a1.56,1.56,0,0,0-.47-.95,1.51,1.51,0,0,0,1.16.11c.48-.25.55-1.11.72-1.63S43.32,18.75,42.88,18.19Z"/><path class="cls-22" d="M37.38,27.63c-.34-.31-1.25.26-1.78.56a5.66,5.66,0,0,0-1.09.92,2,2,0,0,0,0-.25s.08,0,.11-.07l.14-.18A3.38,3.38,0,0,0,35,28.2a0,0,0,0,0,0-.06h0l-.2.36-.1.16a.61.61,0,0,1-.12.16c0-.08,0-.12,0-.13s0,0-.08.11h0a.41.41,0,0,1,0-.19c0-.07,0-.13,0-.2s0-.27,0-.4a.05.05,0,0,0,0-.05,0,0,0,0,0,0,0h0a2.47,2.47,0,0,0,0,.47,2.25,2.25,0,0,0,.05.22s0,.09.06.11h0a2.77,2.77,0,0,0-.1.26,6,6,0,0,0-.58-1.33c-.35-.5-.91-1.42-1.35-1.28s-.07.87-.08,1-.16.72,0,1,.85.45.85.45-1.19.1-1.06.83.48,1.06.93,1.07,1-.66,1.12-.86c-.06.36-.08.62,0,.64s.14-.22.24-.56c.07.29.28,1.08.62,1.24s.87,0,1.31-.55-.58-1.21-.58-1.21.75.14,1,0,.34-.77.39-.9S37.71,28,37.38,27.63Z"/><path class="cls-23" d="M42.14,34.38c-.53-.58-2.33.32-2.92.86a23.93,23.93,0,0,0-1.81,2.1,2.92,2.92,0,0,0-.1-.93,2.75,2.75,0,0,1,.43-1.1,1.15,1.15,0,0,1,.39-.4c.18-.09.49,0,.52.19a.32.32,0,0,1-.28.34H38.3a.07.07,0,0,0-.08.05.09.09,0,0,0,.05.08h0a.43.43,0,1,0,.06-.86c-.32,0-.55.28-.72.53a3,3,0,0,0-.4,1A3,3,0,0,0,37,35.18c-.11-.27-.29-.59-.62-.64a.43.43,0,1,0-.08.85s.06,0,.06-.07a.06.06,0,0,0,0-.06.33.33,0,0,1-.3-.33s0,0,0-.06c.08-.23.39-.22.55-.1a1.13,1.13,0,0,1,.32.47,3,3,0,0,1,.23,1.16,3,3,0,0,0-.27.91,27,27,0,0,0-1.42-2.41c-.48-.62-2.1-1.82-2.71-1.35s.41,1.14.36,1.58a2.44,2.44,0,0,0,.07,2,2.14,2.14,0,0,0,1.65.78,2.05,2.05,0,0,0-1,.56c-.27.38.19.81.19.81a1,1,0,0,0,.08.86c.28.46.91.28.91.28a.59.59,0,0,0,.73.41c.44-.06.81-1.18,1-1.85,0,.51.07.87.18.88s.23-.32.32-.81c.08.7.26,1.84.67,2a.59.59,0,0,0,.79-.27s.59.28.94-.12a.94.94,0,0,0,.24-.83s.52-.35.31-.77a2,2,0,0,0-.87-.72,2.13,2.13,0,0,0,1.76-.48,2.5,2.5,0,0,0,.41-1.92C41.53,35.42,42.67,35,42.14,34.38Z"/><path class="cls-24" d="M28.8,51.05c-.36-.17-.73.27-1.06.75a8.5,8.5,0,0,0-.63,1.37,1,1,0,0,0-.19-.31.89.89,0,0,1,.06-.64,1.23,1.23,0,0,1,.55-.46s0,0,0-.06h0a.05.05,0,0,0-.07,0,1,1,0,0,0-.61.54.75.75,0,0,0,0,.62h0a.74.74,0,0,0-.41-.47,1,1,0,0,0-.81,0,.05.05,0,0,0,0,.07s0,0,.06,0h0a1.11,1.11,0,0,1,.72,0,.84.84,0,0,1,.45.44,1.1,1.1,0,0,0,.05.4,7.37,7.37,0,0,0-1.38-.68c-.56-.17-1.13-.28-1.3.09s.55.41.71.67.29.74.59.81a.88.88,0,0,0,.62-.19.85.85,0,0,0-.14.57c.07.26.46.35.52.55,0,0,0,.65.22.64s0-.6,0-.75.36-.27.36-.54-.16-.37-.16-.51a.63.63,0,0,1,.06-.27c.12.3.26.51.33.47s0-.25-.05-.55a.93.93,0,0,1,.18.16c.08.11,0,.29.2.49s.47.13.62.19.34.67.51.55-.22-.57-.24-.62c-.08-.2.16-.51.06-.75s-.48-.36-.48-.36a.84.84,0,0,0,.6-.24c.18-.25,0-.7-.06-1S29.16,51.21,28.8,51.05Z"/><path class="cls-25" d="M24.58,36.16c-.32-.33-1.25.21-1.79.49a6,6,0,0,0-1.12.88,2.17,2.17,0,0,0,0-.25c.05,0,.07,0,.11-.07A1.24,1.24,0,0,0,22,37a2.11,2.11,0,0,0,.26-.4,0,0,0,0,0,0-.05s0,0,0,0h0l-.21.35-.12.17a.44.44,0,0,1-.12.15c0-.07,0-.12,0-.12s-.06,0-.09.1h0a.34.34,0,0,1,0-.2c0-.06,0-.13-.91-.2v-.4c.89,0,.88,0,.86.39h0c0-.43,0-.41.14-.39h0a.44.44,0,0,0-.16.48l0,.22a.17.17,0,0,0,.06.12m0,0a1.86,1.86,0,0,0-.1.25A5.45,5.45,0,0,0,21,36.16c-.32-.52-.85-1.45-1.3-1.34s-.1.86-.12,1a2.59,2.59,0,0,0-.08,1c.1.25.83.48.83.48s-1.18.06-1.08.79.44,1.09.89,1.11,1-.62,1.16-.81c-.08.35-.11.61-.06.62s.16-.21.26-.54c.07.29.25,1.09.58,1.26s.87.06,1.33-.51S22.83,38,22.83,38s.74.16,1,0,.36-.76.42-.88.72-.58.39-.91Z"/><path class="cls-26" d="M49.32,25.93c-.53-.58-2.33.32-2.92.85s-1.53,1.75-1.82,2.11a2.89,2.89,0,0,0-.09-.93,2.7,2.7,0,0,1,.43-1.1,1.1,1.1,0,0,1,.39-.41c.18-.08.49,0,.52.2a.32.32,0,0,1-.28.34h-.07a.06.06,0,0,0-.08,0,.07.07,0,0,0,.05.08h0a.43.43,0,1,0,.06-.85.94.94,0,0,0-.72.52,3.05,3.05,0,0,0-.4,1,2.91,2.91,0,0,0-.22-1.06.92.92,0,0,0-.62-.65.43.43,0,1,0-.08.85.07.07,0,0,0,.08-.05s0-.07,0-.07h0a.32.32,0,0,1-.3-.33.17.17,0,0,1,0-.07c.08-.23.39-.21.55-.1a1.14,1.14,0,0,1,.31.47A3,3,0,0,1,44.31,28a2.82,2.82,0,0,0-.27.91,25.69,25.69,0,0,0-1.42-2.41c-.48-.62-2.1-1.83-2.72-1.35s.42,1.13.37,1.57a2.47,2.47,0,0,0,.07,2,2.14,2.14,0,0,0,1.65.78A2.05,2.05,0,0,0,41,30c-.27.38.19.81.19.81a1,1,0,0,0,.08.85c.28.46.91.29.91.29a.59.59,0,0,0,.73.41c.44-.07.81-1.19,1-1.86,0,.52.07.87.18.88s.23-.32.32-.81c.08.7.25,1.84.67,2a.6.6,0,0,0,.79-.28s.59.28.94-.12a.9.9,0,0,0,.23-.83s.53-.34.32-.76a2.16,2.16,0,0,0-.87-.73,2.16,2.16,0,0,0,1.76-.47,2.51,2.51,0,0,0,.41-1.93C48.7,27,49.85,26.51,49.32,25.93Z"/><path class="cls-27" d="M49.58,41.64c-.43-.56-1.39-.17-2.29.33a12.55,12.55,0,0,0-2.09,1.65,1.78,1.78,0,0,0-.06-.65,1.44,1.44,0,0,1,.62-.95A2,2,0,0,1,47,41.75a.1.1,0,0,0,.1-.09.1.1,0,0,0-.07-.09,1.86,1.86,0,0,0-1.41.34,1.36,1.36,0,0,0-.53,1l0,0h0a1.39,1.39,0,0,0-.25-1.08,1.88,1.88,0,0,0-1.28-.7.09.09,0,0,0-.1.07.09.09,0,0,0,.07.11h0a2,2,0,0,1,1.13.59A1.49,1.49,0,0,1,45,42.93a2.07,2.07,0,0,0-.24.67,13,13,0,0,0-1.63-2.2c-.74-.72-1.57-1.35-2.13-.92s.54,1.12.57,1.66-.13,1.39.27,1.75a1.47,1.47,0,0,0,1.13.2s-.6.32-.69.8.44.91.38,1.28c0,.09-.52,1-.18,1.18s.44-1,.68-1.15.8-.15,1-.57.06-.71.16-.93a1.3,1.3,0,0,1,.31-.39c-.06.57,0,1,.12,1s.28-.37.38-.91a1.34,1.34,0,0,1,.16.39c0,.24-.18.48-.08.94s.64.58.83.81,0,1.34.35,1.28.12-1.09.13-1.18c0-.37.68-.66.71-1.13a1.56,1.56,0,0,0-.47-.95,1.48,1.48,0,0,0,1.16.1c.48-.24.55-1.1.72-1.62S50,42.2,49.58,41.64Z"/><path class="cls-28" d="M49.42,54.24c-.7-.37-1.94,1-2.69,1.7a10.32,10.32,0,0,0-1.4,2,3.07,3.07,0,0,0-.07-.42.26.26,0,0,0,.15-.16c.05-.12.1-.24.14-.36a3.72,3.72,0,0,0,.22-.79.06.06,0,0,0,0-.08h0a.06.06,0,0,0-.08,0h0c-.07.22-.11.45-.17.67s-.06.21-.1.32a.91.91,0,0,1-.12.31c0-.12-.07-.19-.1-.19s-.07.08-.09.21h0a.77.77,0,0,1-.16-.31l-.12-.32c-.08-.22-.14-.44-.22-.66a.08.08,0,0,0-.09,0,.09.09,0,0,0,0,.07,4.36,4.36,0,0,0,.26.77c.06.11.11.23.18.35a.26.26,0,0,0,.15.16h0c0,.16,0,.32-.05.48a9.65,9.65,0,0,0-1.54-2c-.79-.68-2.12-1.94-2.79-1.52s.26,1.45.31,1.68a4,4,0,0,0,.35,1.61c.3.35,1.59.37,1.59.37S41,58.88,41.56,60s1.25,1.56,2,1.37,1.28-1.5,1.47-1.91c.05.62.14,1.06.22,1.06s.15-.43.16-1c.24.45.94,1.66,1.57,1.77s1.45-.32,1.91-1.49S47.41,58,47.41,58s1.3-.09,1.57-.47a4.21,4.21,0,0,0,.24-1.63C49.25,55.71,50.11,54.62,49.42,54.24Z"/><path class="cls-29" d="M50.61,11.81c-.43-.53-2,.14-2.56.55a22.4,22.4,0,0,0-1.69,1.71,2.44,2.44,0,0,0,0-.81,2.38,2.38,0,0,1,.44-.92.86.86,0,0,1,.36-.32c.16-.06.42,0,.44.2a.28.28,0,0,1-.28.27h0a.06.06,0,0,0-.06,0,.07.07,0,0,0,0,.06.37.37,0,1,0,.11-.73.76.76,0,0,0-.65.4,2.81,2.81,0,0,0-.41.81,2.54,2.54,0,0,0-.12-.91c-.09-.25-.22-.53-.5-.59a.37.37,0,1,0-.12.72,0,0,0,0,0,.05-.05h0s0,0,0-.05a.27.27,0,0,1-.24-.3.07.07,0,0,1,0-.05c.08-.2.34-.16.48-.06a.94.94,0,0,1,.25.43,2.45,2.45,0,0,1,.13,1,2.49,2.49,0,0,0-.29.76,21.6,21.6,0,0,0-1.08-2.15c-.37-.57-1.68-1.7-2.25-1.33s.29,1,.22,1.38a2.12,2.12,0,0,0-.06,1.69,1.84,1.84,0,0,0,1.37.77,1.77,1.77,0,0,0-.88.42c-.26.32.11.71.11.71a.84.84,0,0,0,0,.74c.21.41.77.3.77.3a.51.51,0,0,0,.6.4c.38,0,.77-1,1-1.54,0,.44,0,.76.1.77s.21-.25.33-.68c0,.61.1,1.6.45,1.74a.51.51,0,0,0,.69-.19s.5.28.83,0a.82.82,0,0,0,.25-.69s.48-.27.32-.64A1.84,1.84,0,0,0,48,15a1.83,1.83,0,0,0,1.54-.31A2.15,2.15,0,0,0,50,13C50,12.65,51,12.34,50.61,11.81Z"/><path class="cls-30" d="M40.73,45.54c-.44-.41-1.61.35-2.29.75A7.37,7.37,0,0,0,37,47.51c0-.11,0-.22,0-.33a.21.21,0,0,0,.14-.1l.18-.24a2.86,2.86,0,0,0,.3-.54,0,0,0,0,0,0-.07s-.06,0-.07,0,0,0,0,0-.16.31-.26.46l-.13.22a.43.43,0,0,1-.15.2c0-.09,0-.15,0-.16s-.06.05-.1.14h0a.53.53,0,0,1-.05-.25l0-.25c0-.18,0-.35,0-.53a.05.05,0,0,0,0-.05s0,0,0,.05h0a2.56,2.56,0,0,0,0,.62c0,.1,0,.19.06.29s0,.12.09.14h0a2.3,2.3,0,0,0-.12.34A7.41,7.41,0,0,0,36,45.76c-.45-.64-1.2-1.82-1.77-1.63s-.07,1.11-.08,1.29-.2.93,0,1.25,1.1.57,1.1.57-1.54.16-1.35,1.09.64,1.38,1.23,1.38,1.22-.87,1.43-1.14c-.08.47-.1.81,0,.83s.18-.29.3-.73c.1.37.39,1.39.83,1.6s1.13,0,1.69-.75S38.54,48,38.54,48s1,.17,1.24-.06.42-1,.48-1.16S41.17,46,40.73,45.54Z"/><path class="cls-31" d="M48.7,34.61c-.43-.16-1.06.7-1.44,1.18a6.05,6.05,0,0,0-.66,1.26,2.25,2.25,0,0,0-.08-.24s.06-.06.08-.1l.06-.22a2,2,0,0,0,.06-.48,0,0,0,0,0,0,0h0a.05.05,0,0,0-.05,0h0c0,.13,0,.27,0,.4l0,.2a1.33,1.33,0,0,1,0,.19c0-.07-.05-.11-.07-.11s0,0,0,.13h0a.36.36,0,0,1-.11-.16l-.1-.17c-.06-.12-.11-.25-.17-.37a0,0,0,0,0-.05,0s0,0,0,0h0a2,2,0,0,0,.2.42,1.27,1.27,0,0,0,.13.19s.05.08.1.08h0v.28a5.53,5.53,0,0,0-1-1c-.51-.34-1.37-1-1.73-.68s.26.82.3.95a2.36,2.36,0,0,0,.32.92c.2.19,1,.09,1,.09s-1.06.55-.67,1.17.85.81,1.27.65.64-1,.72-1.23c.07.36.16.61.2.6s.06-.25,0-.6c.17.24.67.89,1,.91s.82-.29,1-1-1-.9-1-.9.75-.15.88-.39,0-.83,0-1S49.13,34.78,48.7,34.61Z"/><path class="cls-32" d="M46.75,63.64c-.39-.08-.64.44-.85,1a7.34,7.34,0,0,0-.28,1.47.88.88,0,0,0-.26-.25.78.78,0,0,1-.09-.63,1,1,0,0,1,.43-.58,0,0,0,0,0,0-.07h0a.06.06,0,0,0-.07,0,1.06,1.06,0,0,0-.48.67.78.78,0,0,0,.14.61h0v0a.8.8,0,0,0-.51-.37,1.07,1.07,0,0,0-.8.17,0,0,0,0,0,0,.07s0,0,.07,0h0a1.07,1.07,0,0,1,.7-.16.81.81,0,0,1,.54.32,1.28,1.28,0,0,0,.14.37,7.59,7.59,0,0,0-1.5-.34c-.58,0-1.16,0-1.24.4s.63.27.85.48.46.65.76.65a.84.84,0,0,0,.56-.34.87.87,0,0,0,0,.6c.13.23.53.22.64.4s.16.63.35.57-.17-.58-.13-.74.28-.36.22-.62-.24-.32-.27-.45a.88.88,0,0,1,0-.28c.19.26.38.43.44.39s0-.26-.18-.52a.53.53,0,0,1,.21.11c.11.08.1.27.32.43s.48,0,.65,0,.49.57.62.41-.35-.5-.38-.55,0-.53-.12-.74a.87.87,0,0,0-.54-.24s.41-.1.52-.38-.17-.67-.29-1S47.15,63.72,46.75,63.64Z"/><path class="cls-33" d="M34.33,59.1c-.36-.17-.73.28-1.06.76a7.58,7.58,0,0,0-.62,1.36,1,1,0,0,0-.2-.3.83.83,0,0,1,.07-.64,1.13,1.13,0,0,1,.55-.46.06.06,0,0,0,0-.07h0s0,0-.06,0h0a1,1,0,0,0-.62.54.75.75,0,0,0,0,.62h0l0,0a.75.75,0,0,0-.41-.48,1,1,0,0,0-.81,0s0,0,0,.06a0,0,0,0,0,.06,0h0a1.11,1.11,0,0,1,.72,0,.78.78,0,0,1,.45.44,1.39,1.39,0,0,0,.06.4A6.88,6.88,0,0,0,31,60.66c-.55-.17-1.13-.28-1.3.09s.56.41.71.67.3.74.59.81a.85.85,0,0,0,.62-.19.83.83,0,0,0-.14.57c.08.26.46.35.53.55s0,.65.21.64,0-.61,0-.75.36-.28.36-.55-.16-.37-.16-.5a.67.67,0,0,1,.06-.28c.12.3.26.51.33.48s0-.26,0-.55a.55.55,0,0,1,.18.16c.08.1,0,.28.2.49s.48.12.62.19.34.67.51.55-.22-.57-.24-.62c-.08-.2.16-.51.06-.76s-.48-.35-.48-.35a.82.82,0,0,0,.6-.25c.18-.24,0-.7-.05-1S34.7,59.27,34.33,59.1Z"/><path class="cls-34" d="M46.93,50.53c-.22-.3-1.11,0-1.4.24a10,10,0,0,0-1,.88,1.62,1.62,0,0,0,0-.44,1.32,1.32,0,0,1,.26-.48.53.53,0,0,1,.2-.16c.09,0,.23,0,.23.12a.14.14,0,0,1-.14.14h0l0,0h0a.05.05,0,0,0,0,0h0a.2.2,0,0,0,.25-.14.19.19,0,0,0-.13-.25h0a.42.42,0,0,0-.35.19,1.26,1.26,0,0,0-.24.44,1.67,1.67,0,0,0,0-.5.44.44,0,0,0-.26-.33.2.2,0,0,0-.25.13.19.19,0,0,0,.13.25h0a0,0,0,0,0,0,0l0,0a.15.15,0,0,1-.13-.16v0c.05-.1.19-.08.26,0a.46.46,0,0,1,.12.23,1.28,1.28,0,0,1,0,.55,1.18,1.18,0,0,0-.17.4c-.16-.4-.34-.8-.54-1.19s-.87-1-1.18-.77.13.54.08.74a1.19,1.19,0,0,0-.07.92,1,1,0,0,0,.72.45.9.9,0,0,0-.49.21c-.14.16.05.38.05.38a.43.43,0,0,0,0,.4.4.4,0,0,0,.41.18.27.27,0,0,0,.31.23h0c.21,0,.45-.51.57-.81,0,.24,0,.41,0,.42s.12-.13.19-.35c0,.33,0,.86.21.95A.26.26,0,0,0,45,53.3h0s.27.16.45,0a.43.43,0,0,0,.15-.37s.26-.13.19-.33a1,1,0,0,0-.36-.39,1,1,0,0,0,.84-.12,1.16,1.16,0,0,0,.29-.87C46.58,51,47.14,50.83,46.93,50.53Z"/><path class="cls-35" d="M49.07,19.64c-.34-.32-1.25.25-1.78.56a6,6,0,0,0-1.09.92,2.3,2.3,0,0,0,0-.26s.07,0,.1-.07l.14-.18a1.69,1.69,0,0,0,.24-.41s0,0,0-.05h-.05l-.2.36-.1.16a.61.61,0,0,1-.12.16c0-.08,0-.12,0-.13s-.05,0-.08.11h0a.41.41,0,0,1,0-.19c0-.07,0-.13,0-.2s0-.27,0-.4,0,0,0-.05a0,0,0,0,0,0,0h0a2.48,2.48,0,0,0,0,.47c0,.07,0,.14,0,.22s0,.09.06.11h0a2.77,2.77,0,0,0-.1.26,5.59,5.59,0,0,0-.58-1.33c-.34-.5-.91-1.42-1.35-1.28s-.07.87-.08,1a2.74,2.74,0,0,0,0,1c.12.25.85.45.85.45s-1.19.1-1.05.83.47,1.06.93,1.07,1-.66,1.11-.86a1.38,1.38,0,0,0,0,.64s.14-.22.24-.56c.07.29.29,1.08.62,1.24s.87,0,1.31-.55-.58-1.21-.58-1.21.75.14,1,0,.33-.77.38-.9S49.4,20,49.07,19.64Z"/></g></g></g></g></g></svg>